<svg xmlns="http://www.w3.org/2000/svg" width="1024" height="1024" viewBox="0 0 1024 1024" version="1.1">
  <!-- Transparenter Hintergrund -->
  <rect width="1024" height="1024" fill="none"/>

  <!-- Letzte Justierung: Y auf -45 (deutlich nach oben), X bleibt bei -510, Scale 1.45 -->
  <g transform="translate(-510, -45) scale(1.45)">
    <path d="M826 101c5.242 2.44 8.024 6.135 11.25 10.813 1.787 5.213 1.27 9.646-1.062 14.5-1.423 2.686-3.018 4.574-5.188 6.687 1.875 7.059 3.897 14.045 6.137 20.996l.904 2.824c3.51 10.94 7.07 21.862 10.64 32.782q1.724 5.273 3.442 10.548l2.209 6.76c.34 1.043.68 2.085 1.029 3.16l.962 2.938.838 2.565L858 218l.637 2.553c2.032 3.647 5.216 4.87 8.854 6.591l2.342 1.156q2.515 1.237 5.041 2.453a948 948 0 0 1 7.982 3.9c5.643 2.78 11.3 5.533 16.957 8.285a4271 4271 0 0 1 19.616 9.6 1210 1210 0 0 0 7.859 3.812l4.832 2.376 2.203 1.045 2.052 1.023 1.766.857c3.795 2.754 6.443 5.118 7.315 9.796.185 3.092.2 6.147.165 9.244l.02 3.591c.012 3.282.003 6.562-.017 9.844-.015 3.542-.002 7.084.008 10.626.015 6.935.002 13.87-.02 20.806-.023 8.077-.021 16.154-.019 24.231.004 14.412-.017 28.824-.051 43.235q-.05 20.976-.041 41.952.012 22.842-.015 45.684l-.004 2.44-.006 4.853q-.009 8.445-.006 16.89.003 10.29-.032 20.582c-.012 3.5-.019 7.001-.013 10.502.004 3.794-.011 7.588-.03 11.382l.016 3.354c-.05 5.502-.204 9.635-3.411 14.337-2.362 1.76-2.362 1.76-5.172 3.191l-3.167 1.653-3.411 1.718q-2.663 1.383-5.324 2.773-1.81.946-3.626 1.886c-5.75 2.985-11.371 6.176-16.987 9.404-8.582 4.901-17.275 9.539-26.053 14.076-7.958 4.119-15.79 8.432-23.605 12.815-5.54 3.097-11.098 6.165-16.655 9.234l-1.879 1.038c-9.876 5.454-19.8 10.814-29.746 16.14a889 889 0 0 0-20.5 11.385c-10.576 6.037-21.312 11.749-32.078 17.438l-4.07 2.151-2.006 1.06a1475 1475 0 0 0-17.909 9.663l-2.668 1.454a650 650 0 0 0-11.164 6.21l-3.48 1.961-2.844 1.64c-4.058 1.695-6.783 1.878-10.915.184-2.77-1.35-5.474-2.787-8.178-4.261l-3.083-1.644c-7.811-4.192-15.524-8.556-23.218-12.959-8.331-4.744-16.783-9.239-25.262-13.71-10.253-5.408-20.418-10.93-30.48-16.687-8.026-4.577-16.163-8.933-24.32-13.27a884 884 0 0 1-23.888-13.168c-8.992-5.14-18.118-9.97-27.326-14.711a640 640 0 0 1-20.162-10.852c-6.32-3.549-12.694-6.996-19.074-10.437-14.105-7.63-14.105-7.63-20-10.937-1.036-.58-2.073-1.158-3.14-1.754-3.773-2.434-6.175-4.38-7.61-8.684a88 88 0 0 1-.137-4.881l-.015-3.068-.002-3.38-.013-3.584q-.016-4.933-.022-9.865-.01-5.316-.029-10.632-.034-12.84-.052-25.683l-.011-7.252a52816 52816 0 0 1-.071-58.071 20287 20287 0 0 0-.088-42.007 16669 16669 0 0 1-.071-43.115c-.004-8.07-.015-16.142-.048-24.212a3542 3542 0 0 1-.028-20.617c.005-3.506.002-7.013-.022-10.52-.023-3.8-.015-7.6.001-11.402l-.042-3.36c.086-8.323.086-8.323 2.977-11.951 3.082-2.767 6.261-4.661 9.963-6.442l2.17-1.087a930 930 0 0 1 7.09-3.488q2.49-1.234 4.976-2.473c4.366-2.17 8.74-4.322 13.115-6.471 4.399-2.164 8.79-4.343 13.181-6.521q9.726-4.821 19.464-9.617 9.745-4.798 19.45-9.673c6.014-3.016 12.086-5.9 18.174-8.76a738 738 0 0 0 15.38-7.505l2.112-1.058 10.721-5.37 8.382-4.2q8.28-4.149 16.563-8.295l12.46-6.242c17.74-8.894 35.478-17.777 53.439-26.222a177 177 0 0 0 5.39-2.731c4.36-2.054 8.32-2.026 12.803-.518 2.329 1.01 4.581 2.115 6.84 3.273l2.23 1.098c2.599 1.284 5.184 2.593 7.77 3.902q3.53 1.767 7.063 3.531l6.445 3.223L791 189l.574-2.145c1.476-5.472 3.017-10.897 4.766-16.289l.63-1.951q.981-3.026 1.967-6.053.653-2.012 1.303-4.025l.647-1.995q.636-1.961 1.267-3.924a261 261 0 0 1 3.124-9.122l1.163-3.219 1.057-2.808c.604-2.972.145-3.981-1.498-6.469a659 659 0 0 0-2.625-3.687c-2.791-4.456-3.362-8.157-2.375-13.313.94-2.71 2.222-4.758 4-7 .44-.583.88-1.165 1.332-1.766C811.689 99.43 818.611 99.962 826 101" fill="#040404"/>
    <path d="m714.52 262.957 2.472 1.234 2.617 1.284c2.76 1.355 5.513 2.721 8.266 4.087q2.718 1.339 5.438 2.674a3609 3609 0 0 1 24.316 12.084 1000 1000 0 0 0 18.434 8.992c11.694 5.589 23.35 11.258 35 16.938l2.696 1.315Q821.38 315.28 829 319c-2.84 2.346-5.547 4.458-8.836 6.121l-2.192 1.126-2.347 1.19c-9.6 4.956-18.997 10.236-28.383 15.583l-2.657 1.51q-2.6 1.479-5.193 2.968l-2.447 1.389-2.163 1.237C773 351 773 351 771 351l4.492 9.082c1.48 2.996 1.48 2.996 3.508 5.918 4.071-1.263 7.718-2.773 11.465-4.8l3.141-1.695 3.332-1.818 3.452-1.868c8.814-4.78 17.55-9.698 26.223-14.73l2.684-1.542 2.323-1.349C834 337 834 337 840 335v182l6 2a159 159 0 0 1 6.156 3.273l1.744.97q2.804 1.562 5.6 3.132l3.913 2.178q2.964 1.648 5.927 3.3c5.762 3.21 11.55 6.374 17.348 9.522A3005 3005 0 0 1 915 557v2l-1.826.943c-10.737 5.553-21.443 11.137-31.981 17.061-6.307 3.533-12.679 6.94-19.06 10.339-9.235 4.918-18.422 9.902-27.508 15.094-9.427 5.387-18.977 10.513-28.571 15.593-8.254 4.374-16.445 8.831-24.554 13.47-9.376 5.363-18.873 10.467-28.42 15.516-9.8 5.184-19.487 10.523-29.076 16.088l-2.637 1.517-2.278 1.326C717 667 717 667 713 668v-93h-18v93c-4.993-1.997-9.623-4.315-14.375-6.813l-2.783-1.458c-7.887-4.165-15.646-8.54-23.392-12.96A526 526 0 0 0 636.5 637c-8.098-4.2-16.028-8.666-23.953-13.184-6.714-3.815-13.498-7.457-20.353-11.012-6.231-3.251-12.341-6.693-18.444-10.179-8.606-4.913-17.314-9.568-26.124-14.105-7.765-4.02-15.362-8.295-22.95-12.636C514.272 569.961 503.652 564.461 493 559v-2l2.285-1.218c17.447-9.284 17.447-9.284 34.778-18.782l2.022-1.128a5408 5408 0 0 0 10.262-5.752q4.643-2.606 9.29-5.203 1.854-1.037 3.705-2.08 2.592-1.458 5.19-2.907l3.048-1.712C566 517 566 517 568 517V335c3.483 1.393 6.654 2.785 9.957 4.504l2.848 1.481 3.008 1.577 3.11 1.628c5.923 3.113 11.813 6.273 17.64 9.56l1.904 1.074a439 439 0 0 1 9.482 5.543l1.937 1.15a681 681 0 0 1 5.223 3.147c2.689 1.45 2.689 1.45 5.047 1.488 3.05-1.906 4.152-5.048 5.594-8.215l.957-2.01A428 428 0 0 0 637 351l-2.126-.805c-3.065-1.274-5.93-2.75-8.854-4.32l-3.504-1.878-3.703-1.997-3.79-2.038a2212 2212 0 0 1-21.398-11.65l-2.118-1.166c-3.97-2.21-7.76-4.576-11.507-7.146 3.114-3.359 6.808-5.05 10.89-7l2.424-1.176q3.966-1.918 7.936-3.824 2.778-1.342 5.554-2.688 5.749-2.783 11.5-5.56a3966 3966 0 0 0 16.071-7.807l2.505-1.222 4.933-2.408a7893 7893 0 0 1 40.983-19.865l3.255-1.567 3.057-1.46a152 152 0 0 0 5.686-2.947l2.624-1.421 2.255-1.274c5.375-1.803 10.053.84 14.847 3.176" fill="#fcfcfc"/>
    <path d="M730.438 318.25c7.264 5.572 13.206 12.162 16.562 20.75l1.054 2.566c1.179 4.28 1.046 7.996.868 12.399-.477 20.985-.61 36.456 13.024 53.41 2.924 3.737 5.465 7.694 8.05 11.67 4.522 6.95 9.21 13.793 13.883 20.642 17.7 26.053 17.7 26.053 17.121 35.313-1.72.656-1.72.656-4 1-2.167-.972-2.167-.972-4.477-2.492l-2.53-1.637-2.618-1.746-5.164-3.367-2.303-1.527c-1.883-1.264-1.883-1.264-3.908-2.231v17h2v2l1.766.77c2.476 1.363 4.04 2.872 5.984 4.918 4.409 4.523 9.027 8.759 13.98 12.683 4.764 3.775 6.95 6.424 7.832 12.504-.221 5.076-3.06 7.7-6.562 11.125-2.898 2.4-5.928 4.58-9 6.75a2700 2700 0 0 0-5.09 3.672l-2.523 1.822c-3.391 2.494-6.671 5.116-9.95 7.756-9.334 7.46-16.832 12.496-29 12.414-6.683-.805-11.392-4.32-16-9.039-1.346-2.224-1.883-3.875-2.437-6.375-6.336-.01-12.67.028-19.006.098q-3.233.027-6.466.022c-3.099-.003-6.195.033-9.294.075l-2.92-.027c-2.575.056-4.827.161-7.314.832-2.556 2.757-2.556 2.757-4 6-6.841 6.395-11.933 8.487-21.2 8.395-7.146-.743-13.592-3.473-20.237-6.082q-2.118-.807-4.237-1.608c-2.09-.79-4.18-1.585-6.263-2.396-3.323-1.293-6.644-2.52-10.04-3.608l-3.746-1.22-3.308-1.023c-3.886-1.908-5.639-3.812-7.969-7.458-.49-2.963-.704-5.335-.664-8.285l-.015-2.36q-.005-2.457.027-4.914c.027-2.5 0-4.997-.032-7.498q.005-2.396.02-4.79l-.03-2.252c.087-3.916.538-5.707 3.02-8.793 3.104-2.447 6.371-4.122 9.924-5.796 6.371-3.159 10.652-6.763 15.113-12.406L630 474h2v-11a5732 5732 0 0 0-7.75 4.813c-.73.451-1.46.903-2.21 1.369-2.896 1.803-5.718 3.568-8.415 5.662C612 476 612 476 609.75 475.688L608 475c-1.327-3.968-.788-6.303 1.034-10.024l1.017-1.933 1.074-2.089c5.295-9.984 11.76-19.277 18.063-28.642q3.746-5.595 7.48-11.199l1.841-2.76c13.91-18.766 13.91-18.766 19.632-40.314q.028-2.78.058-5.559c.029-2.913.051-5.826.051-8.74.02-15.698 1.4-27.857 12.75-39.74 16.877-16.173 39.806-18.667 59.438-5.75" fill="#040505"/>
    <path d="M481 288c4.043.809 6.046 1.36 9.457 3.266l2.585 1.428 2.77 1.556 5.946 3.293 3.11 1.728a936 936 0 0 0 9.25 5.03l3.074 1.653q2.858 1.535 5.72 3.065 2.778 1.498 5.483 3.126c2.712 1.53 5.314 2.367 8.314 3.18 5.975 1.97 10.677 4.376 14.291 9.675 3.471 11.949 2.268 25.16 1.926 37.463-.119 5.015-.13 10.03-.152 15.046-.059 9.486-.215 18.968-.406 28.452-.212 10.802-.317 21.605-.412 32.409A6559 6559 0 0 1 551 505q-5.459 3.096-10.919 6.188l-3.088 1.752c-8.83 4.998-17.755 9.79-26.743 14.497l-6.454 3.395q-2.058 1.083-4.118 2.164c-4.925 2.589-9.8 5.26-14.648 7.993C483 542 483 542 481 542zm446 0v254c-4.357-1.452-7.734-2.78-11.691-4.914l-3.322-1.784-3.55-1.927-3.692-1.991C888.748 522.744 872.785 514.02 857 505V325c8.467-4.838 16.916-9.635 25.5-14.25l6.215-3.355 3.144-1.697c5.074-2.743 10.14-5.5 15.203-8.26l2.72-1.48 2.566-1.4 2.41-1.312a234 234 0 0 0 6.176-3.586C924 288 924 288 927 288M695 172v72c-14.357 7.179-28.66 14.311-43.146 21.2-10.792 5.144-21.503 10.458-32.229 15.738-14.49 7.132-28.992 14.231-43.563 21.196l-2.943 1.407-2.72 1.295a197 197 0 0 0-5.932 3.028C562 309 562 309 559.313 308.554c-4.878-2.289-9.596-4.826-14.313-7.429l-3.2-1.749q-4.902-2.683-9.8-5.376a11334 11334 0 0 0-14.15-7.733c-8.244-4.498-16.536-8.9-24.85-13.267v-2q9.963-5 19.93-9.991 4.634-2.32 9.264-4.644c13.167-6.607 26.346-13.181 39.669-19.473 7.358-3.482 14.636-7.12 21.91-10.774q4.59-2.303 9.18-4.6l7.433-3.724q9.738-4.878 19.48-9.752l14.686-7.355q7.194-3.606 14.39-7.206 2.7-1.35 5.4-2.705c9.73-4.88 19.488-9.697 29.302-14.407l2.747-1.328 2.534-1.209 2.242-1.074C693 172 693 172 695 172m18 0c3.737 1.246 6.89 2.318 10.34 4.01.819.4 1.637.8 2.48 1.21l2.688 1.327 2.913 1.427q4.854 2.383 9.704 4.776l6.918 3.4a7447 7447 0 0 1 43.566 21.643l2.537 1.269a20196 20196 0 0 1 25.086 12.568c14.54 7.298 29.076 14.588 43.778 21.556 10.554 5.009 20.988 10.258 31.428 15.501l6.044 3.03q7.26 3.638 14.518 7.283c-3.2 3.603-6.783 5.708-11.02 7.871-.687.36-1.374.718-2.083 1.088q-2.207 1.152-4.419 2.295c-3.856 1.993-7.7 4.01-11.544 6.027l-2.318 1.215c-7.638 4.016-15.151 8.235-22.635 12.531a719 719 0 0 1-4.9 2.789 205 205 0 0 0-5.315 3.157c-3.809 1.414-5.073.712-8.766-.973l-2.37-1.08a529 529 0 0 1-8.505-4.045l-2.836-1.36a1126 1126 0 0 1-16.676-8.21c-10.148-5.09-20.35-10.07-30.55-15.055l-6.156-3.01c-15.84-7.747-31.687-15.48-47.538-23.208l-2.494-1.216-4.598-2.24c-5.059-2.467-5.059-2.467-7.277-3.576zm-37 218c3.902 1.378 6.837 3.19 10.125 5.688 3.885 2.86 7.765 5.717 11.75 8.437l2.617 1.82c2.453 1.349 2.453 1.349 4.854.322 2.733-1.305 5.13-2.782 7.63-4.49l2.782-1.88 2.867-1.96q2.829-1.928 5.664-3.847l2.522-1.723C729 391 729 391 732 390a34440 34440 0 0 1 6.496 19.985c8.47 26.039 8.47 26.039 12.004 38.077 1.486 5.026 3.172 9.983 4.875 14.938 1.625 4.785 1.625 4.785 1.625 7l-1.758.078c-5.467.397-8.959 1.236-13.242 4.922-4.527 5.488-5.795 11.695-7.5 18.5q-.858 3.33-1.719 6.656l-.86 3.348c-1.544 5.86-3.23 11.677-4.921 17.496-6.317.178-12.633.3-18.951.385q-3.224.052-6.446.143c-3.09.085-6.18.125-9.271.156l-2.905.11c-6.49.003-6.49.003-9.2-2.3-1.373-1.81-2.428-3.367-3.227-5.494.625-2.812.625-2.812 2-5 1.63-3.26 1.467-5.378 1-9-3.795-6.76-11.146-11.544-17.137-16.256A316 316 0 0 1 657 479l-1.867-1.522c-1.692-1.501-1.692-1.501-4.133-4.478-.004-2.914-.004-2.914 1-6l.91-3.46q.57-1.96 1.153-3.915l.648-2.196c2.243-7.476 4.764-14.855 7.265-22.247 2.568-7.656 4.884-15.36 7.034-23.144 1.496-5.41 3.173-10.728 4.99-16.038l1.188-3.562z" fill="#fdfdfd"/>
    <path d="M640 483c2.706.257 3.774.75 5.614 2.782l1.59 2.386 1.83 2.744c3.66 5.748 7.206 11.56 10.716 17.4l2.285 3.784q2.989 4.948 5.965 9.904l1.71 2.762c1.975 3.427 1.867 6.394 1.29 10.238-1.632 3.672-3.476 6.042-7 8-5.384 1.195-8.705.804-13.824-1.168l-1.902-.715a551 551 0 0 1-5.962-2.304q-2.942-1.126-5.888-2.244-1.926-.734-3.85-1.473c-5.078-1.943-10.21-3.677-15.39-5.328C615 529 615 529 614 528a115 115 0 0 1-.098-5.785l.01-3.545.025-3.732.014-3.745q.018-4.597.049-9.193l2.852-1.574 3.773-2.113 1.871-1.03c6.36-3.581 11.408-8.042 16.504-13.283zm115.125-.5c5.837.194 8.686 2.65 12.875 6.5l1.584 1.447q4.56 4.176 9.06 8.416a284 284 0 0 0 9.805 8.77c1.584 1.396 3.074 2.859 4.551 4.367-1.33 3.992-3.91 5.297-7.25 7.563q-1.926 1.339-3.848 2.683l-1.977 1.382c-2.931 2.089-5.774 4.285-8.612 6.497C752.628 544.637 752.628 544.637 746 544c-3.658-2.04-5.67-3.504-8-7-.356-5.6.345-10.506 1.75-15.937l1.105-4.47.576-2.292c.744-3.01 1.436-6.032 2.13-9.055 5.171-22.479 5.171-22.479 11.564-22.746" fill="#fbfbfb"/>
    <path d="M761 76c2.186 1.577 2.186 1.577 4 4 .508 3.301.508 3.301.518 7.275l.02 2.2a553 553 0 0 1-.007 7.181q.005 2.5.012 4.999.008 5.235-.022 10.47c-.022 4.473-.01 8.945.015 13.417.014 3.44.01 6.88 0 10.32q-.005 2.475.01 4.948c.01 2.305-.006 4.61-.028 6.915l-.01 3.974C765 155 765 155 763.186 157.423c-3.197 2.306-5.345 2.126-9.186 1.577-2.186-1.577-2.186-1.577-4-4-.508-3.301-.508-3.301-.518-7.275l-.02-2.2a553 553 0 0 1 .007-7.181l-.012-4.999q-.008-5.235.022-10.47c.022-4.473.01-8.945-.015-13.417-.014-3.44-.01-6.88 0-10.32q.005-2.475-.01-4.948c-.01-2.305.006-4.61.028-6.915l.01-3.974C750 80 750 80 751.814 77.577 755.01 75.27 757.159 75.45 761 76" fill="#020202"/>
    <path d="M885 76c2.186 1.583 2.186 1.583 4 4 .508 3.257.508 3.257.518 7.168l.02 2.164c.018 2.357.007 4.713-.007 7.07l.012 4.925q.008 5.158-.022 10.316c-.022 4.403-.01 8.805.015 13.208.014 3.39.01 6.78 0 10.169q-.005 2.434.01 4.87c.01 2.27-.006 4.541-.028 6.813l-.01 3.913c-.595 3.964-1.623 5.64-4.508 8.384-3.869.622-5.965.748-9.186-1.58-2.493-3.325-2.322-5.562-2.332-9.695l-.02-2.2a553 553 0 0 1 .007-7.181l-.012-4.999q-.008-5.158.022-10.47c.022-4.473.01-8.945-.015-13.417-.014-3.44-.01-6.88 0-10.32q.005-2.475-.01-4.948c-.01-2.305.006-4.61.028-6.915l.01-3.974C874 80 874 80 875.814 77.577 879.01 75.27 881.159 75.45 885 76" fill="#030404"/>
    <path d="M784 88.375c4.187.872 5.426 2.204 8 5.625.72 3.533.653 6.998.594 10.594v3.104a594 594 0 0 1-.052 6.485 672 672 0 0 0-.034 9.915q-.015 3.154-.04 6.308v2.99c-.149 8.651-.149 8.651-3.468 12.604-2.889 1.444-4.796 1.377-8 1-2.942-2.046-4.728-3.679-5.469-7.274-.194-2.858-.224-5.675-.195-8.538l-.015-3.172a602 602 0 0 1 .027-6.626c.027-3.379 0-6.754-.032-10.132q.005-3.223.02-6.445l-.03-3.056c.078-4.728.143-7.023 3.048-10.894C781 89 781 89 784 88.375" fill="#0d0d0d"/>
    <path d="M854.5 88.438c3.5.562 3.5.562 5.686 1.898 2.932 4.306 2.384 8.762 2.345 13.852l.012 3.317q.004 3.47-.022 6.94c-.02 3.542 0 7.083.026 10.625a2906 2906 0 0 1-.016 6.743l.025 3.213c-.093 7.308-.093 7.308-2.406 10.638-3.011 1.871-4.667 1.976-8.15 1.336-2.928-2.053-4.732-3.68-5.462-7.274-.184-2.858-.205-5.675-.167-8.538l-.007-3.172q0-3.314.04-6.626c.033-3.378.02-6.754 0-10.132q.01-3.223.03-6.445l-.015-3.056c.073-4.375.175-7.056 2.398-10.898C851 89 851 89 854.5 88.438" fill="#050505"/>
    <path d="m715.875 378.063 2.086.853q2.522 1.036 5.039 2.084v3c-2.62 2.456-5.702 4.326-8.687 6.313-.817.575-1.634 1.15-2.475 1.744l-2.412 1.619-2.206 1.497c-2.22.827-2.22.827-4.747.135-2.267-1.199-4.361-2.441-6.461-3.91l-2.139-1.484-2.186-1.539-2.244-1.562A1386 1386 0 0 1 684 383c2.968-3.216 6.309-4.647 10.313-6.25l1.974-.852c7.436-3.007 12.626-.743 19.588 2.164" fill="#f6f7f6"/>
    <path d="M806 191h27l3.063 8.75.976 2.737.746 2.185.778 2.222c.494 2.38.198 3.822-.563 6.106l-2.902-1.469c-9.954-5.017-19.992-9.828-30.098-14.531z" fill="#f6f6f6"/>
    <path d="M724.852 346.402c4.243 1.18 6.96 3.679 9.289 7.442 2.231 5.6 1.44 12.308-.641 17.844L732 375l-5-2 .07-2.773.055-3.602.07-3.586c.134-3.15.134-3.15-2.195-5.039-3-.333-3-.333-6 0-2.762 2.762-2.579 5.207-3 9-3.875-.875-3.875-.875-5-2-.76-4.435-.827-8.38 1.246-12.441 3.599-4.647 6.644-6.716 12.606-6.157" fill="#f2f2f2"/>
    <path d="M690 347c3.096 2.438 4.823 4.735 7 8 .195 2.7.195 2.7.125 5.688l-.055 3.011L697 366l-5 1-.375-3.375c-.272-3.656-.272-3.656-2.625-5.625-2.688-.27-5.291-.087-8 0v15l-5 2c-2.883-6.367-3.973-12.009-3-19 3.796-7.591 8.57-10.641 17-9" fill="#f1f1f1"/>
    <path d="M819 151c2.163 2.163 2.6 3.348 3.508 6.21l.8 2.524.817 2.641.84 2.617C826.195 168.92 827 171.83 827 176h-15c1.126-7.884 1.126-7.884 2.156-11.367l.66-2.242.684-2.266.684-2.336c1.682-5.655 1.682-5.655 2.816-6.789" fill="#efefef"/>
  </g>
</svg>
